<?xml version="1.0" standalone="no"?>
<!DOCTYPE svg PUBLIC "-//W3C//DTD SVG 20010904//EN"
 "http://www.w3.org/TR/2001/REC-SVG-20010904/DTD/svg10.dtd">
<svg version="1.0" xmlns="http://www.w3.org/2000/svg"
 width="920.000000pt" height="920.000000pt" viewBox="0 0 920.000000 920.000000"
 preserveAspectRatio="xMidYMid meet">
<metadata>
Created by potrace 1.11, written by Peter Selinger 2001-2013
</metadata>
<g transform="translate(0.000000,920.000000) scale(0.100000,-0.100000)"
fill="#000000" stroke="none">
<path d="M3450 6830 l0 -210 -1325 0 -1325 0 0 -665 0 -665 260 0 260 0 0 540
0 540 1328 2 1327 3 3 80 c2 44 0 194 -3 333 l-7 252 -259 0 -259 0 0 -210z"/>
<path d="M7440 6830 l0 -210 -1330 0 -1330 0 0 -665 0 -665 260 0 260 0 0 540
0 540 1330 0 1330 0 0 335 0 335 -260 0 -260 0 0 -210z"/>
<path d="M8470 6340 l0 -210 -1325 0 -1325 0 0 -420 0 -420 265 0 265 0 0 300
0 300 1330 0 1330 0 0 330 0 330 -270 0 -270 0 0 -210z"/>
<path d="M1837 6123 c-4 -3 -7 -192 -7 -420 l0 -413 270 0 270 0 0 300 0 300
875 0 876 0 -3 118 -3 117 -1136 3 c-624 1 -1139 -1 -1142 -5z"/>
<path d="M2788 4838 l-3 -213 -992 -3 -993 -2 -2 -993 -3 -992 -72 -3 -73 -3
0 -119 0 -120 335 0 335 0 0 995 0 995 995 0 995 0 0 335 0 335 -260 0 -260 0
-2 -212z"/>
<path d="M6770 4835 l0 -215 -995 0 -995 0 0 -995 0 -995 -70 0 -70 0 0 -120
0 -120 330 0 330 0 0 995 0 995 998 2 997 3 3 70 c2 39 1 188 -3 333 l-7 262
-259 0 -259 0 0 -215z"/>
<path d="M3830 4350 l0 -210 -997 -2 -998 -3 -3 -997 -2 -998 -65 0 -65 0 0
-120 0 -120 333 2 332 3 3 992 2 993 873 2 872 3 3 333 2 332 -145 0 -145 0 0
-210z"/>
<path d="M7810 4350 l0 -210 -995 0 -995 0 0 -1000 0 -1000 -65 0 -65 0 0
-120 0 -120 330 0 330 0 0 995 0 995 995 0 995 0 0 335 0 335 -265 0 -265 0 0
-210z"/>
</g>
</svg>
