<?xml version="1.0" encoding="UTF-8" standalone="no"?>
<svg width="1709px" height="768px" viewBox="0 0 1709 768" version="1.1" xmlns="http://www.w3.org/2000/svg" xmlns:xlink="http://www.w3.org/1999/xlink">
    <!-- Generator: Sketch 41.2 (35397) - http://www.bohemiancoding.com/sketch -->
    <title>Slice 1</title>
    <desc>Created with Sketch.</desc>
    <defs></defs>
    <g id="Page-1" stroke="none" stroke-width="1" fill="none" fill-rule="evenodd">
        <g id="fastly_logo-(1)" fill="#D52F2F">
            <polyline id="Fill-1" points="1099.15 206.345 1099.15 627.414 1225.63 627.414 1225.63 563.079 1183.84 563.079 1183.84 142.207 1099.14 142.217 1099.15 206.345"></polyline>
            <path d="M0.853,563.079 L43.848,563.079 L43.848,359.932 L0.853,359.932 L0.853,304.064 L43.848,296.993 L43.848,240.439 C43.848,171.936 58.758,142.208 146.118,142.208 C164.986,142.208 187.35,144.994 206.93,148.521 L195.324,217.383 C182.063,215.282 175.487,214.909 167.104,214.909 C136.326,214.909 128.545,217.98 128.545,248.052 L128.545,296.993 L192.449,296.993 L192.449,359.932 L128.545,359.932 L128.545,563.079 L171.092,563.079 L171.092,627.404 L0.853,627.422 L0.853,563.079" id="Fill-2"></path>
            <path d="M1056.07,542.748 C1042.82,545.543 1031.23,545.207 1022.85,545.413 C988.01,546.27 991.02,534.816 991.02,501.961 L991.02,359.932 L1057.34,359.932 L1057.34,296.993 L991.02,296.993 L991.02,142.207 L906.319,142.207 L906.319,519.523 C906.319,593.604 924.602,627.414 1004.28,627.414 C1023.15,627.414 1049.08,622.558 1068.66,618.365 L1056.07,542.748" id="Fill-3"></path>
            <path d="M1577.19,595.277 L1582.94,595.277 C1586.23,595.277 1588.42,594.001 1588.42,590.538 C1588.42,587.252 1586.23,585.967 1583.12,585.967 L1577.19,585.967 L1577.19,595.277 Z M1588.14,611.068 L1581.66,601.576 L1577.19,601.576 L1577.19,611.068 L1569.98,611.068 L1569.98,579.668 L1583.12,579.668 C1590.88,579.668 1595.72,583.595 1595.72,590.538 C1595.72,595.641 1593.16,599.113 1589.15,600.297 L1597,611.068 L1588.14,611.068 Z M1582.21,622.294 C1597,622.294 1609.04,610.157 1609.04,595.374 C1609.04,580.582 1597,568.812 1582.21,568.812 C1567.43,568.812 1555.46,580.582 1555.46,595.374 C1555.46,610.157 1567.43,622.294 1582.21,622.294 L1582.21,622.294 Z M1582.21,563.424 C1600.01,563.424 1614.43,577.572 1614.43,595.374 C1614.43,613.17 1600.01,627.315 1582.21,627.315 C1564.41,627.315 1550.08,613.17 1550.08,595.374 C1550.08,577.572 1564.41,563.424 1582.21,563.424 L1582.21,563.424 Z" id="Fill-4"></path>
            <path d="M800.593,359.817 L800.593,348.549 C774.97,343.876 749.526,343.808 735.723,343.808 C696.308,343.808 691.503,364.71 691.503,376.04 C691.503,392.069 696.972,400.736 739.672,410.072 C802.088,424.084 864.773,438.704 864.773,516.098 C864.773,589.495 826.999,627.414 747.487,627.414 C694.28,627.414 642.654,615.992 603.264,605.996 L603.264,542.748 L667.401,542.748 L667.364,553.984 C694.964,559.315 723.903,558.782 739.011,558.782 C781.053,558.782 787.855,536.178 787.855,524.161 C787.855,507.483 775.799,499.473 736.389,491.482 C662.143,478.796 603.219,453.447 603.219,378.028 C603.219,306.642 650.964,278.638 730.477,278.638 C784.344,278.638 825.303,286.992 864.715,296.993 L864.715,359.817 L800.593,359.817" id="Fill-5"></path>
            <path d="M410.919,415.411 L404.473,408.964 L371.741,437.49 C370.089,436.897 368.322,436.559 366.475,436.559 C357.642,436.559 350.492,443.919 350.492,452.99 C350.492,462.071 357.642,469.43 366.475,469.43 C375.304,469.43 382.471,462.071 382.471,452.99 C382.471,451.268 382.21,449.608 381.731,448.047 L410.919,415.411" id="Fill-6"></path>
            <path d="M371.539,542.556 L371.539,532.6 L361.392,532.6 L361.392,542.528 C315.936,539.878 279.576,503.357 277.204,457.827 L287.29,457.827 L287.29,447.68 L277.257,447.68 C279.952,402.466 316.162,366.291 361.392,363.654 L361.392,373.634 L371.539,373.634 L371.539,363.626 C416.124,366.009 452.036,400.981 455.917,445.152 L455.917,448.063 L445.751,448.063 L445.751,458.209 L455.92,458.209 L455.922,460.988 C452.06,505.18 416.138,540.172 371.539,542.556 Z M540.645,542.748 L540.59,279.188 L455.895,279.188 L455.895,303.904 C438.451,293.438 419.02,285.955 398.309,282.119 L398.788,282.119 L398.788,252.872 L409.122,252.872 L409.122,231.362 L323.842,231.362 L323.842,252.872 L334.174,252.872 L334.174,282.119 L334.762,282.119 C253.756,297.032 192.368,367.966 192.368,453.284 C192.368,549.436 270.314,627.382 366.465,627.382 C399.281,627.382 429.969,618.29 456.169,602.507 L471.427,627.414 L560.889,627.414 L560.889,542.748 L540.645,542.748 L540.645,542.748 Z" id="Fill-7"></path>
            <path d="M1439.99,296.993 L1614.68,296.993 L1614.68,359.871 L1572.92,359.871 L1465.79,623.44 C1435.09,697.479 1384.65,767.165 1307.85,767.165 C1288.96,767.165 1263.82,765.072 1246.39,760.883 L1254.05,684.012 C1265.24,686.104 1279.89,687.481 1287.58,687.481 C1323.2,687.481 1363.37,665.411 1375.94,626.986 L1267.39,359.871 L1225.63,359.871 L1225.63,296.993 L1400.41,296.993 L1400.41,359.871 L1358.66,359.871 L1420.16,511.17 L1481.65,359.871 L1439.99,359.871 L1439.99,296.993" id="Fill-8"></path>
        </g>
    </g>
</svg>